<?xml version="1.0" encoding="UTF-8"?>
<svg xmlns="http://www.w3.org/2000/svg" version="1.1" viewBox="0 0 341.9 357.4">
  <defs>
    <style>
      .cls-1 {
        stroke-width: 28px;
      }

      .cls-1, .cls-2, .cls-3, .cls-4, .cls-5, .cls-6 {
        stroke: #fff;
        stroke-miterlimit: 10;
      }

      .cls-1, .cls-3, .cls-4, .cls-5, .cls-6 {
        fill: none;
      }

      .cls-2 {
        fill: #fff;
      }

      .cls-3 {
        stroke-width: 16px;
      }

      .cls-4 {
        stroke-width: 2px;
      }

      .cls-5 {
        stroke-width: 7px;
      }

      .cls-6 {
        stroke-width: 20px;
      }
    </style>
  </defs>
  <!-- Generator: Adobe Illustrator 28.7.5, SVG Export Plug-In . SVG Version: 1.2.0 Build 176)  -->
  <g>
    <g id="Calque_1">
      <g id="Calque_1-2" data-name="Calque_1">
        <g id="Calque_1-2">
          <g>
            <polygon class="cls-3" points="32.2 251.7 174.1 24.4 316 251.7 32.2 251.7"/>
            <path class="cls-3" d="M174.1,43l124.7,199.7H49.4L174.1,43M174.1,15c-3.3,0-6.8,1.5-8.7,4.4L22.8,248c-3.6,5.8,1.1,12.7,8.7,12.7h285.4c7.4,0,12.2-7,8.7-12.7L182.8,19.5c-1.9-3-5.2-4.4-8.7-4.4h0Z"/>
          </g>
          <g>
            <g>
              <path class="cls-5" d="M174.1,196.1c-43.3,0-73.5-15.1-73.5-28.6s30.1-28.6,73.5-28.6,73.5,15.1,73.5,28.6-30.1,28.6-73.5,28.6Z"/>
              <path class="cls-5" d="M174.1,144.7c40.2,0,66.8,13.6,66.8,22.8s-26.5,22.8-66.8,22.8-66.8-13.6-66.8-22.8,26.5-22.8,66.8-22.8M174.1,132.9c-44.2,0-80.1,15.4-80.1,34.5s35.9,34.5,80.1,34.5,80.1-15.4,80.1-34.5-35.9-34.5-80.1-34.5h0Z"/>
            </g>
            <g>
              <path class="cls-5" d="M174.5,190.8c-16,0-29.1-10.9-29.1-24.5s13.1-24.5,29.1-24.5,29.1,10.9,29.1,24.5-13.1,24.5-29.1,24.5h0Z"/>
              <path class="cls-5" d="M174.5,147.7c12.4,0,22.4,8.3,22.4,18.6s-10,18.6-22.4,18.6-22.4-8.3-22.4-18.6,10-18.6,22.4-18.6M174.5,136c-19.7,0-35.8,13.5-35.8,30.2s16,30.2,35.8,30.2,35.8-13.5,35.8-30.2-16-30.2-35.8-30.2h0Z"/>
            </g>
          </g>
          <line class="cls-1" x1="174.9" y1="252.6" x2="174.9" y2="348"/>
          <line class="cls-6" x1="219.6" y1="266.2" x2="219.6" y2="305.5"/>
          <line class="cls-6" x1="130.2" y1="266.2" x2="130.2" y2="305.5"/>
          <line class="cls-4" x1="146.5" y1="47.7" x2="207.4" y2="46.7"/>
          <line class="cls-1" x1="244" y1="143" x2="326.6" y2="95.4"/>
          <line class="cls-6" x1="233.4" y1="97.6" x2="267.5" y2="77.9"/>
          <line class="cls-6" x1="278.1" y1="174.9" x2="312.2" y2="155.2"/>
          <line class="cls-1" x1="96.8" y1="146.9" x2="14.1" y2="99.1"/>
          <line class="cls-6" x1="107.3" y1="101.3" x2="73.2" y2="81.7"/>
          <line class="cls-6" x1="62.6" y1="178.8" x2="28.6" y2="159"/>
        </g>
      </g>
      <polygon class="cls-2" points="173.5 32.7 168.4 45.6 181.7 45 173.5 32.7"/>
    </g>
  </g>
</svg>
